# xmcd
#
# Track frame offsets: 
#        150
#        14431
#        31452
#        52004
#        70434
#        85392
#        99288
#        112136
#        128804
#        142288
#
# Disc length: 2163 seconds
#
# Revision: 4
# Processed by: cddbd v1.5PL3 Copyright (c) Steve Scherf et al.
# Submitted via: ExactAudioCopy v0.95a3
#
DISCID=9508710a
DTITLE=Patty Loveless - When Fallen Angels Fly
DYEAR=1994
DGENRE=Country
TTITLE0=A Handful Of Dust
TTITLE1=Halfway Down
TTITLE2=When The Fallen Angels Fly
TTITLE3=You Don't Even Know Who I Am
TTITLE4=Feelin' Good About Feelin' Bad
TTITLE5=Here I Am
TTITLE6=I Try To Think About Elvis
TTITLE7=Ships
TTITLE8=Old Weakness (Coming On Strong)
TTITLE9=Over My Shoulder
EXTD=
EXTT0=
EXTT1=
EXTT2=
EXTT3=
EXTT4=
EXTT5=
EXTT6=
EXTT7=
EXTT8=
EXTT9=
PLAYORDER=
